# xmcd
#
# Track frame offsets: 
#        150
#        39869
#        54619
#        74616
#        96278
#        120531
#        189262
#        208638
#
# Disc length: 2967 seconds
#
# Revision: 4
# Processed by: cddbd v1.5.2PL0 Copyright (c) Steve Scherf et al.
# Submitted via: ExactAudioCopy v0.99pb3
#
DISCID=6c0b9508
DTITLE=Blind Faith - Blind Faith
DYEAR=1969
DGENRE=Rock
TTITLE0=Had to Cry Today
TTITLE1=Can't Find My Way Home
TTITLE2=Well All Right
TTITLE3=Presence of the Lord
TTITLE4=Sea of Joy
TTITLE5=Do What You Like
TTITLE6=Exchange And Mart
TTITLE7=Spending All My Days
EXTD=
EXTT0=
EXTT1=
EXTT2=
EXTT3=
EXTT4=
EXTT5=
EXTT6=
EXTT7=
PLAYORDER=
